<?xml version="1.0" standalone="no"?>
<!DOCTYPE svg PUBLIC "-//W3C//DTD SVG 20010904//EN"
 "http://www.w3.org/TR/2001/REC-SVG-20010904/DTD/svg10.dtd">
<svg version="1.0" xmlns="http://www.w3.org/2000/svg"
 width="106.000000pt" height="106.000000pt" viewBox="0 0 106.000000 106.000000"
 preserveAspectRatio="xMidYMid meet">
<metadata>
Created by potrace 1.16, written by Peter Selinger 2001-2019
</metadata>
<g transform="translate(0.000000,106.000000) scale(0.100000,-0.100000)"
fill="#000000" stroke="none">
<path d="M390 1046 c-228 -64 -390 -274 -390 -508 0 -251 149 -450 389 -522
67 -20 207 -21 276 -2 182 48 333 199 381 381 18 64 18 206 0 270 -48 182
-199 333 -381 381 -62 17 -215 16 -275 0z m313 -158 c65 -31 177 -136 177
-167 0 -10 -13 -34 -29 -54 -21 -27 -31 -33 -40 -24 -6 6 -11 15 -11 20 0 4
-12 24 -26 42 -67 88 -208 133 -316 101 -69 -20 -133 -67 -173 -127 l-31 -45
-27 35 c-33 42 -33 48 -2 92 49 65 110 111 188 140 79 29 212 23 290 -13z
m-136 -224 c64 -13 119 -90 110 -154 -4 -34 -125 -269 -138 -270 -3 0 -36 53
-72 118 -54 94 -67 126 -67 160 0 69 37 124 96 142 38 11 37 11 71 4z m-360
-192 c23 -18 45 -42 49 -54 6 -19 57 -111 126 -225 19 -31 19 -33 1 -26 -57
20 -148 105 -187 172 -30 53 -65 213 -38 176 4 -6 26 -25 49 -43z m723 19 c0
-45 -43 -153 -79 -199 -41 -52 -120 -115 -160 -127 l-23 -7 19 28 c41 59 112
186 124 218 7 18 24 41 38 49 15 9 35 25 45 36 24 26 36 27 36 2z"/>
<path d="M483 585 c-29 -21 -38 -66 -19 -103 39 -75 156 -43 156 42 0 62 -83
99 -137 61z"/>
</g>
</svg>
